<svg width="634" height="393" viewBox="0 0 634 393" fill="none" xmlns="http://www.w3.org/2000/svg">
<path fill-rule="evenodd" clip-rule="evenodd" d="M633.723 87.0078H0L12.9861 305.175C12.9861 353.227 149.036 392.182 316.861 392.182C484.687 392.182 620.737 353.227 620.737 305.175L633.723 87.0078Z" fill="#4A301E"/>
<path fill-rule="evenodd" clip-rule="evenodd" d="M624.017 241.543C606.817 285.011 475.861 318.81 316.862 318.81C157.863 318.81 26.906 285.011 9.70674 241.543C8.44161 244.74 7.79199 247.99 7.79199 251.283C7.79199 299.335 146.167 338.29 316.862 338.29C487.556 338.29 625.931 299.335 625.931 251.283C625.931 247.99 625.282 244.74 624.017 241.543Z" fill="white"/>
<path fill-rule="evenodd" clip-rule="evenodd" d="M629.178 162.328C611.69 205.796 478.532 239.596 316.861 239.596C155.19 239.596 22.0324 205.796 4.5441 162.328C3.25771 165.526 2.59717 168.775 2.59717 172.068C2.59717 220.12 143.298 259.075 316.861 259.075C490.425 259.075 631.125 220.12 631.125 172.068C631.125 168.775 630.465 165.526 629.178 162.328Z" fill="white"/>
<path d="M632.723 87.007C632.723 98.4938 624.233 109.677 608.278 120.035C592.366 130.365 569.275 139.706 540.651 147.566C483.419 163.281 404.297 173.014 316.861 173.014C229.426 173.014 150.303 163.281 93.0713 147.566C64.4481 139.706 41.357 130.365 25.4451 120.035C9.48987 109.677 1 98.4938 1 87.007C1 75.5202 9.48987 64.3369 25.4451 53.9787C41.357 43.6486 64.4481 34.3077 93.0713 26.4481C150.303 10.7327 229.426 1 316.861 1C404.297 1 483.419 10.7327 540.651 26.4481C569.275 34.3077 592.366 43.6486 608.278 53.9787C624.233 64.3369 632.723 75.5202 632.723 87.007Z" fill="#7D5135" stroke="#80543B" stroke-width="2"/>
</svg>
