<svg width="112" height="112" viewBox="0 0 112 112" fill="none" xmlns="http://www.w3.org/2000/svg">
<path fill-rule="evenodd" clip-rule="evenodd" d="M32.6667 32.6666V79.3333C32.6667 84.488 36.8454 88.6667 42.0001 88.6667H79.3334C84.4881 88.6667 88.6668 84.488 88.6668 79.3333V32.6666C88.6668 27.512 84.4881 23.3333 79.3334 23.3333H42.0001C36.8454 23.3333 32.6667 27.512 32.6667 32.6666Z" stroke="black" stroke-width="7" stroke-linecap="round" stroke-linejoin="round"/>
<path fill-rule="evenodd" clip-rule="evenodd" d="M69.9999 46.6666C69.9999 51.8213 65.8212 56 60.6666 56C55.5119 56 51.3333 51.8213 51.3333 46.6666C51.3333 41.512 55.5119 37.3333 60.6666 37.3333C65.8212 37.3333 69.9999 41.512 69.9999 46.6666Z" stroke="black" stroke-width="7" stroke-linecap="round" stroke-linejoin="round"/>
<path d="M30.5716 76.5296C29.0231 77.6866 28.7058 79.8798 29.8628 81.4283C31.0198 82.9768 33.2131 83.2941 34.7616 82.1371L30.5716 76.5296ZM86.5716 82.1371C88.1201 83.2941 90.3133 82.9768 91.4704 81.4283C92.6274 79.8798 92.31 77.6866 90.7616 76.5296L86.5716 82.1371ZM23.3333 38.5C21.4003 38.5 19.8333 40.067 19.8333 42C19.8333 43.933 21.4003 45.5 23.3333 45.5V38.5ZM32.6666 45.5C34.5996 45.5 36.1666 43.933 36.1666 42C36.1666 40.067 34.5996 38.5 32.6666 38.5V45.5ZM23.3333 52.5C21.4003 52.5 19.8333 54.067 19.8333 56C19.8333 57.933 21.4003 59.5 23.3333 59.5V52.5ZM32.6666 59.5C34.5996 59.5 36.1666 57.933 36.1666 56C36.1666 54.067 34.5996 52.5 32.6666 52.5V59.5ZM23.3333 66.5C21.4003 66.5 19.8333 68.067 19.8333 70C19.8333 71.933 21.4003 73.5 23.3333 73.5V66.5ZM32.6666 73.5C34.5996 73.5 36.1666 71.933 36.1666 70C36.1666 68.067 34.5996 66.5 32.6666 66.5V73.5ZM34.7616 82.1371C50.1241 70.6582 71.209 70.6582 86.5716 82.1371L90.7616 76.5296C72.9142 63.194 48.419 63.194 30.5716 76.5296L34.7616 82.1371ZM23.3333 45.5H32.6666V38.5H23.3333V45.5ZM23.3333 59.5H32.6666V52.5H23.3333V59.5ZM23.3333 73.5H32.6666V66.5H23.3333V73.5Z" fill="black"/>
</svg>
