<svg width="267" height="267" viewBox="0 0 267 267" fill="none" xmlns="http://www.w3.org/2000/svg">
<path fill-rule="evenodd" clip-rule="evenodd" d="M133.5 20.5385C71.1131 20.5385 20.5385 71.1131 20.5385 133.5C20.5385 195.887 71.1131 246.462 133.5 246.462C195.887 246.462 246.462 195.887 246.462 133.5C246.462 71.1131 195.887 20.5385 133.5 20.5385ZM0 133.5C0 59.77 59.77 0 133.5 0C207.23 0 267 59.77 267 133.5C267 207.23 207.23 267 133.5 267C59.77 267 0 207.23 0 133.5Z" fill="#FF6B6B"/>
<path fill-rule="evenodd" clip-rule="evenodd" d="M133.5 75.3077C139.172 75.3077 143.769 79.9054 143.769 85.5769V140.346C143.769 146.018 139.172 150.615 133.5 150.615C127.828 150.615 123.231 146.018 123.231 140.346V85.5769C123.231 79.9054 127.828 75.3077 133.5 75.3077Z" fill="#FF6B6B"/>
<path d="M147.192 181.423C147.192 188.985 141.062 195.115 133.5 195.115C125.938 195.115 119.808 188.985 119.808 181.423C119.808 173.861 125.938 167.731 133.5 167.731C141.062 167.731 147.192 173.861 147.192 181.423Z" fill="#FF6B6B"/>
</svg>
