<svg width="34" height="34" viewBox="0 0 34 34" fill="none" xmlns="http://www.w3.org/2000/svg">
<path d="M31.9722 7.47314H28.7124C29.0404 6.8247 29.2238 6.11279 29.25 5.38656C29.2028 4.1027 28.6532 2.88874 27.7197 2.00611C26.7861 1.12349 25.5433 0.642806 24.2588 0.667584C22.7288 0.733482 21.2454 1.2136 19.967 2.0567C18.6886 2.8998 17.6631 4.07422 17 5.45461C16.344 4.07808 15.3263 2.90563 14.0557 2.06249C12.7851 1.21936 11.3094 0.737223 9.78611 0.667584C9.73439 0.667584 9.68266 0.667584 9.63094 0.667584C8.36483 0.669612 7.14882 1.16246 6.23857 2.0425C5.32832 2.92255 4.79474 4.12124 4.75 5.38656V5.47639C4.77655 6.1713 4.9525 6.85233 5.26586 7.47314H2.02778C1.66679 7.47314 1.32058 7.61654 1.06532 7.8718C0.810067 8.12706 0.666664 8.47326 0.666664 8.83425L0.666664 12.9176C0.666664 13.2786 0.810067 13.6248 1.06532 13.88C1.32058 14.1353 1.66679 14.2787 2.02778 14.2787H31.9722C32.3332 14.2787 32.6794 14.1353 32.9347 13.88C33.1899 13.6248 33.3333 13.2786 33.3333 12.9176V8.83425C33.3333 8.47326 33.1899 8.12706 32.9347 7.8718C32.6794 7.61654 32.3332 7.47314 31.9722 7.47314ZM24.301 3.38981C24.8569 3.37538 25.3973 3.57419 25.8114 3.94546C26.2254 4.31674 26.4817 4.83234 26.5278 5.38656C26.5085 5.94369 26.2747 6.47182 25.8752 6.86064C25.4757 7.24947 24.9415 7.46891 24.384 7.47314H19.0117C19.8583 5.7595 21.542 3.38981 24.301 3.38981ZM7.47222 5.43147C7.50707 4.87449 7.75441 4.35215 8.16319 3.97223C8.57198 3.59232 9.11102 3.38383 9.66905 3.38981C12.4852 3.4007 14.1349 5.74589 14.991 7.47314H9.68266C9.12378 7.47735 8.58426 7.26864 8.1737 6.88943C7.76313 6.51022 7.51232 5.98893 7.47222 5.43147V5.43147Z" fill="#6462E7"/>
<path d="M19.7222 17.0009V33.3342H26.5278C27.6108 33.3342 28.6494 32.904 29.4151 32.1383C30.1809 31.3725 30.6111 30.3339 30.6111 29.2509V17.0009H19.7222Z" fill="#9F9EE3"/>
<path d="M14.2778 17.0009H3.38889V29.2509C3.38889 30.3339 3.8191 31.3725 4.58487 32.1383C5.35065 32.904 6.38926 33.3342 7.47223 33.3342H14.2778V17.0009Z" fill="#9F9EE3"/>
</svg>
