<svg width="286" height="286" viewBox="0 0 286 286" fill="none" xmlns="http://www.w3.org/2000/svg">
<path fill-rule="evenodd" clip-rule="evenodd" d="M143.167 42.3333C87.478 42.3333 42.3333 87.478 42.3333 143.167C42.3333 198.855 87.478 244 143.167 244C198.855 244 244 198.855 244 143.167C244 87.478 198.855 42.3333 143.167 42.3333ZM24 143.167C24 77.3527 77.3527 24 143.167 24C208.981 24 262.333 77.3527 262.333 143.167C262.333 208.981 208.981 262.333 143.167 262.333C77.3527 262.333 24 208.981 24 143.167Z" fill="#888888"/>
<path fill-rule="evenodd" clip-rule="evenodd" d="M143.167 97.3333C134.729 97.3333 127.889 104.173 127.889 112.611C127.889 117.674 123.785 121.778 118.722 121.778C113.66 121.778 109.556 117.674 109.556 112.611C109.556 94.0482 124.604 79 143.167 79C161.73 79 176.778 94.0482 176.778 112.611C176.778 119.289 174.821 125.537 171.447 130.781C169.333 134.066 166.862 137.202 164.584 140.033C164.167 140.551 163.757 141.058 163.355 141.556C161.464 143.896 159.729 146.044 158.125 148.248C154.17 153.684 152.333 157.769 152.333 161.5C152.333 166.563 148.229 170.667 143.167 170.667C138.104 170.667 134 166.563 134 161.5C134 151.731 138.796 143.653 143.301 137.462C145.204 134.846 147.29 132.266 149.186 129.92C149.566 129.45 149.938 128.99 150.3 128.54C152.564 125.727 154.49 123.252 156.029 120.861C157.557 118.486 158.444 115.666 158.444 112.611C158.444 104.173 151.604 97.3333 143.167 97.3333Z" fill="#888888"/>
<path d="M155.389 198.167C155.389 204.917 149.917 210.389 143.167 210.389C136.417 210.389 130.944 204.917 130.944 198.167C130.944 191.417 136.417 185.944 143.167 185.944C149.917 185.944 155.389 191.417 155.389 198.167Z" fill="#888888"/>
</svg>
