<svg width="289" height="289" viewBox="0 0 289 289" fill="none" xmlns="http://www.w3.org/2000/svg">
<path fill-rule="evenodd" clip-rule="evenodd" d="M112.742 42.609C91.548 42.609 74.3671 59.7898 74.3671 80.9835C74.3671 102.177 91.548 119.358 112.742 119.358C133.935 119.358 151.116 102.177 151.116 80.9835C151.116 59.7898 133.935 42.609 112.742 42.609ZM55.8415 80.9835C55.8415 49.5584 81.3166 24.0833 112.742 24.0833C144.167 24.0833 169.642 49.5584 169.642 80.9835C169.642 112.409 144.167 137.884 112.742 137.884C81.3166 137.884 55.8415 112.409 55.8415 80.9835Z" fill="#030D45"/>
<path fill-rule="evenodd" clip-rule="evenodd" d="M89.2471 185.521C63.4895 185.521 42.6089 206.402 42.6089 232.159C42.6089 233.441 42.83 234.326 43.052 234.828C43.2309 235.232 43.3627 235.308 43.4211 235.342C49.7745 239.076 68.0514 246.391 112.742 246.391C157.432 246.391 175.703 239.079 182.057 235.345C182.115 235.311 182.252 235.232 182.431 234.828C182.653 234.326 182.874 233.441 182.874 232.159C182.874 206.402 161.994 185.521 136.236 185.521H89.2471ZM24.0833 232.159C24.0833 196.17 53.2581 166.995 89.2471 166.995H136.236C172.225 166.995 201.4 196.17 201.4 232.159C201.4 238.358 199.305 246.696 191.444 251.317C181.083 257.406 159.057 264.917 112.742 264.917C66.4264 264.917 44.4002 257.406 34.0397 251.317C26.1782 246.696 24.0833 238.358 24.0833 232.159Z" fill="#030D45"/>
<path fill-rule="evenodd" clip-rule="evenodd" d="M187.165 46.8085C188.5 41.87 193.585 38.9485 198.524 40.2833C218.956 45.8055 233.158 65.9822 233.158 88.9231C233.158 113.163 216.544 135.019 193.242 137.818C188.163 138.428 183.551 134.805 182.941 129.726C182.33 124.646 185.953 120.034 191.033 119.424C203.458 117.932 214.633 105.454 214.633 88.9231C214.633 73.239 205.016 61.2283 193.69 58.1673C188.752 56.8325 185.83 51.747 187.165 46.8085Z" fill="#030D45"/>
<path fill-rule="evenodd" clip-rule="evenodd" d="M214.804 174.485C215.783 169.464 220.647 166.187 225.669 167.167C248.464 171.612 264.917 191.583 264.917 214.808V221.247C264.917 226.948 263.206 235.067 255.77 239.821C250.763 243.021 242.998 246.431 231.025 248.854C226.011 249.868 221.124 246.626 220.11 241.612C219.095 236.597 222.338 231.71 227.352 230.696C237.566 228.629 243.087 225.941 245.792 224.212L245.814 224.191C245.834 224.165 245.906 224.068 245.996 223.849C246.193 223.37 246.391 222.511 246.391 221.247V214.808C246.391 200.447 236.218 188.099 222.122 185.35C217.101 184.371 213.825 179.506 214.804 174.485Z" fill="#030D45"/>
</svg>
