<svg width="257" height="264" viewBox="0 0 257 264" fill="none" xmlns="http://www.w3.org/2000/svg">
<path d="M101.583 122.042C116.468 122.042 129.94 115.999 139.684 106.235C144.663 107.756 149.946 108.583 155.417 108.583C185.146 108.583 209.25 84.4795 209.25 54.75C209.25 25.0206 185.146 0.916687 155.417 0.916687C140.532 0.916687 127.06 6.95948 117.316 16.7235C112.337 15.2027 107.061 14.375 101.583 14.375C71.8539 14.375 47.75 38.4789 47.75 68.2084C47.75 97.9378 71.8539 122.042 101.583 122.042ZM155.417 14.375C177.677 14.375 195.792 32.4899 195.792 54.75C195.792 77.0101 177.677 95.125 155.417 95.125C133.157 95.125 115.042 77.0101 115.042 54.75C115.042 32.4899 133.157 14.375 155.417 14.375ZM101.583 27.8334C103.932 27.8334 106.22 28.0756 108.461 28.4659C104.1 36.2448 101.583 45.1946 101.583 54.75C101.583 73.7666 111.468 90.4415 126.36 100.024C119.51 105.367 110.923 108.583 101.583 108.583C79.3232 108.583 61.2083 90.4684 61.2083 68.2084C61.2083 45.9483 79.3232 27.8334 101.583 27.8334Z" fill="#6462E7"/>
<path d="M168.875 142.229C127.168 142.229 93.1381 157.195 83.8855 177.907C70.2253 167.275 61.3562 155.883 61.2082 155.681C50.0782 140.863 28.9486 137.855 14.104 148.958C-0.740497 160.088 -3.75516 181.218 7.37488 196.069C9.44073 198.815 58.6848 263.354 128.5 263.354H256.354V189.333C256.354 162.921 217.93 142.229 168.875 142.229ZM242.896 249.896H128.5C65.3332 249.896 20.0392 190.518 18.1415 187.994C11.4662 179.085 13.2764 166.407 22.179 159.732C25.8061 157.013 30.0589 155.701 34.2781 155.701C40.4151 155.701 46.4781 158.48 50.4281 163.729C50.7645 164.193 85.6149 209.521 128.5 209.521H182.333V202.792V196.063H135.229H128.5C121.744 196.063 115.169 194.609 108.925 192.308C104.181 190.558 99.6183 188.324 95.3453 185.78C99.4299 170.895 128.48 155.688 168.875 155.688C212.493 155.688 242.896 173.419 242.896 189.333V249.896Z" fill="#6462E7"/>
</svg>
