<svg width="323" height="323" viewBox="0 0 323 323" fill="none" xmlns="http://www.w3.org/2000/svg">
<g clip-path="url(#clip0_2_961)">
<path d="M87.4792 296.083H100.938C100.938 262.686 128.11 235.521 161.5 235.521V222.062C128.11 222.062 100.938 194.897 100.938 161.5H87.4792C87.4792 194.897 60.3069 222.062 26.9167 222.062V235.521C60.3069 235.521 87.4792 262.686 87.4792 296.083ZM94.2084 192.326C101.604 208.409 114.598 221.396 130.667 228.792C114.591 236.187 101.604 249.174 94.2084 265.257C86.8131 249.174 73.819 236.187 57.7498 228.792C73.819 221.396 86.8131 208.409 94.2084 192.326Z" fill="#FFC700"/>
<path d="M262.431 215.333H248.973V248.979H215.333V262.438H248.973V296.083H262.431V262.438H296.083V248.979H262.431V215.333Z" fill="#FFC700"/>
<path d="M235.521 26.9167H222.062C222.062 60.3135 194.89 87.4792 161.5 87.4792V100.938C194.89 100.938 222.062 128.103 222.062 161.5H235.521C235.521 128.103 262.693 100.938 296.083 100.938V87.4792C262.693 87.4792 235.521 60.3135 235.521 26.9167ZM228.792 130.674C221.396 114.591 208.402 101.604 192.333 94.2084C208.409 86.813 221.396 73.8257 228.792 57.743C236.187 73.8257 249.181 86.813 265.25 94.2084C249.181 101.604 236.187 114.591 228.792 130.674Z" fill="#FFC700"/>
<path d="M60.5693 107.667H74.0276V74.0209H107.667V60.5625H74.0276V26.9167H60.5693V60.5625H26.9167V74.0209H60.5693V107.667Z" fill="#FFC700"/>
</g>
<defs>
<clipPath id="clip0_2_961">
<rect width="323" height="323" fill="white"/>
</clipPath>
</defs>
</svg>
