<svg width="257" height="308" viewBox="0 0 257 308" fill="none" xmlns="http://www.w3.org/2000/svg">
<g clip-path="url(#clip0_314_3)">
<path d="M220.027 212.829V122.785C220.027 112.617 211.708 104.298 201.54 104.298H173.81H118.349H90.6188C80.451 104.298 72.1319 112.617 72.1319 122.785V203.346C70.5282 204.043 68.9707 204.885 67.5102 205.975C57.3147 213.62 55.2442 228.132 62.8885 238.332C64.3074 240.218 98.1291 284.544 146.079 284.544H233.892V233.706C233.892 225.678 228.711 218.426 220.027 212.829ZM224.648 275.301H146.079C102.695 275.301 71.5866 234.519 70.2833 232.786C65.6985 226.667 66.9418 217.959 73.0563 213.375C75.5474 211.508 78.4683 210.606 81.3661 210.606C85.5811 210.606 89.7453 212.515 92.4582 216.12C92.6893 216.439 116.625 247.571 146.079 247.571H183.053V242.949V238.327H150.701H146.079C141.439 238.327 136.924 237.329 132.635 235.748C129.376 234.547 126.243 233.012 123.308 231.265C126.114 221.042 146.065 210.597 173.81 210.597C203.768 210.597 224.648 222.775 224.648 233.706V275.301ZM164.566 113.541V150.515H127.592V113.541H164.566ZM90.6188 113.541H118.349V159.758H173.81V113.541H201.54C206.638 113.541 210.783 117.687 210.783 122.785V208.069C200.648 203.859 187.887 201.354 173.81 201.354C145.164 201.354 121.792 211.632 115.437 225.858C106.055 218.556 99.9639 210.731 99.8622 210.592C95.3329 204.566 88.3958 201.465 81.3754 201.455V122.785C81.3754 117.687 85.5211 113.541 90.6188 113.541Z" fill="#FF2727"/>
</g>
<path d="M92.0141 84.9606L140.06 93.9092L146.917 57.092L140.59 55.9136L135.235 84.6629C125.982 73.9469 112.497 66.4738 97.1864 63.6222C65.3627 57.6949 35.5724 73.8011 30.7817 99.5225L30.3302 101.947L36.657 103.125L37.1085 100.701C41.4016 77.651 67.9457 63.1927 96.2802 68.4701C109.766 70.9818 121.662 77.5621 129.887 87.0004L92.9167 80.1145L92.0141 84.9606Z" fill="#FF2727"/>
<defs>
<clipPath id="clip0_314_3">
<rect width="221.842" height="221.842" fill="white" transform="translate(35.1582 85.8108)"/>
</clipPath>
</defs>
</svg>
