<svg width="200" height="200" viewBox="0 0 200 200" fill="none" xmlns="http://www.w3.org/2000/svg">
<g clip-path="url(#clip0_324_6)">
<path d="M106.925 81.8791C110.008 82.8208 113.279 83.3333 116.667 83.3333C135.075 83.3333 150 68.4083 150 50C150 31.5916 135.075 16.6666 116.667 16.6666C107.45 16.6666 99.1084 20.4083 93.0751 26.4541C89.9917 25.5125 86.7251 25 83.3334 25C64.9251 25 50.0001 39.925 50.0001 58.3333C50.0001 76.7416 64.9251 91.6666 83.3334 91.6666C92.5501 91.6666 100.892 87.925 106.925 81.8791ZM116.667 33.3333C125.858 33.3333 133.333 40.8083 133.333 50C133.333 59.1916 125.858 66.6666 116.667 66.6666C107.475 66.6666 100 59.1916 100 50C100 40.8083 107.479 33.3333 116.667 33.3333ZM66.6667 58.3333C66.6667 49.1416 74.1417 41.6666 83.3334 41.6666C83.7001 41.6666 84.0376 41.75 84.4001 41.775C83.7292 44.4083 83.3334 47.1541 83.3334 50C83.3334 58.6625 86.6667 66.5291 92.0834 72.4541C89.5334 74.0416 86.5542 75 83.3334 75C74.1459 75 66.6667 67.525 66.6667 58.3333Z" fill="white"/>
<path d="M125 100C100.2 100 79.9459 107.971 71.25 119.904C66.875 116.096 63.4917 112.35 61.6667 109.992C53.3917 98.9792 37.6917 96.7375 26.6667 105C15.6417 113.267 13.3959 128.971 21.6709 140C22.9959 141.771 54.7125 183.333 100 183.333H183.333V133.333C183.333 114.329 158.254 100 125 100ZM35 130C32.2417 126.325 32.9917 121.087 36.6542 118.333C38.1542 117.208 39.9167 116.671 41.6584 116.671C44.1917 116.671 46.6875 117.812 48.3084 119.967C48.5292 120.267 70.9417 150 100 150H133.333V141.667V133.333H100C94.8792 133.333 89.75 131.729 84.9584 129.325C89.6584 123.221 104.271 116.667 125 116.667C150.433 116.667 166.667 126.537 166.667 133.333V166.667H158.333H100C62.9459 166.667 36.1209 131.496 35 130Z" fill="white"/>
</g>
<defs>
<clipPath id="clip0_324_6">
<rect width="200" height="200" fill="white"/>
</clipPath>
</defs>
</svg>
