<svg width="163" height="163" viewBox="0 0 163 163" fill="none" xmlns="http://www.w3.org/2000/svg">
<path d="M121.5 50.024L116.161 54.2212C120.558 59.81 123.541 66.3768 124.858 73.3644C126.175 80.352 125.787 87.5543 123.727 94.36C122.054 99.913 119.296 105.079 115.613 109.56C111.93 114.04 107.396 117.746 102.272 120.464C97.1623 123.205 91.5595 124.907 85.7879 125.47C80.0163 126.033 74.1904 125.446 68.6468 123.744C63.094 122.071 57.9281 119.313 53.448 115.631C48.9679 111.948 45.2626 107.413 42.5464 102.289C39.8011 97.1806 38.0972 91.5778 37.5336 85.8057C36.9699 80.0336 37.5576 74.207 39.2627 68.6637C40.9351 63.1106 43.6921 57.9442 47.3742 53.4635C51.0563 48.9829 55.5904 45.2769 60.7141 42.56C68.6258 38.3199 77.65 36.6152 86.5632 37.6767L68.9151 55.3283L73.7168 60.13L99.8851 33.9583L73.7134 7.78662L68.9117 12.5883L87.2458 30.9224C76.9915 29.7258 66.6166 31.6965 57.5153 36.5697C45.511 42.9742 36.7192 53.6677 32.7596 66.684C28.8001 79.7002 30.1448 93.4805 36.546 105.485C39.6805 111.397 43.9562 116.63 49.1257 120.88C54.2953 125.13 60.2562 128.312 66.6636 130.244C71.5638 131.731 76.5727 132.471 81.5578 132.471C89.8062 132.471 97.98 130.444 105.464 126.454C111.377 123.321 116.61 119.046 120.86 113.877C125.11 108.708 128.292 102.747 130.223 96.3398C132.602 88.4872 133.051 80.1768 131.532 72.1138C130.013 64.0508 126.572 56.4732 121.5 50.024V50.024Z" fill="#0500FF"/>
</svg>
