<svg width="270" height="270" viewBox="0 0 270 270" fill="none" xmlns="http://www.w3.org/2000/svg">
<path fill-rule="evenodd" clip-rule="evenodd" d="M135 39.8077C82.4267 39.8077 39.8077 82.4267 39.8077 135C39.8077 187.573 82.4267 230.192 135 230.192C187.573 230.192 230.192 187.573 230.192 135C230.192 82.4267 187.573 39.8077 135 39.8077ZM22.5 135C22.5 72.868 72.868 22.5 135 22.5C197.132 22.5 247.5 72.868 247.5 135C247.5 197.132 197.132 247.5 135 247.5C72.868 247.5 22.5 197.132 22.5 135Z" fill="#030D45"/>
<path fill-rule="evenodd" clip-rule="evenodd" d="M135 68.6538C139.78 68.6538 143.654 72.5283 143.654 77.3077V135C143.654 137.295 142.743 139.496 141.12 141.119L106.504 175.735C103.125 179.114 97.6452 179.114 94.2657 175.735C90.8861 172.355 90.8862 166.876 94.2657 163.496L126.347 131.415V77.3077C126.347 72.5283 130.221 68.6538 135 68.6538Z" fill="#030D45"/>
</svg>
